<?xml version="1.0" encoding="utf-8"?>
<!DOCTYPE svg PUBLIC "-//W3C//DTD SVG 1.1//EN" "http://www.w3.org/Graphics/SVG/1.1/DTD/svg11.dtd">
<svg version="1.1"
	 id="Layer_1" xmlns:svg="http://www.w3.org/2000/svg" xmlns:cc="http://creativecommons.org/ns#" xmlns:dc="http://purl.org/dc/elements/1.1/" xmlns:inkscape="http://www.inkscape.org/namespaces/inkscape" xmlns:rdf="http://www.w3.org/1999/02/22-rdf-syntax-ns#" xmlns:sodipodi="http://sodipodi.sourceforge.net/DTD/sodipodi-0.dtd"
	 xmlns="http://www.w3.org/2000/svg" xmlns:xlink="http://www.w3.org/1999/xlink" x="0px" y="0px" viewBox="0 0 320 300"
	 enable-background="new 0 0 320 300" xml:space="preserve">
<g transform="translate(0,-952.36218)">
	<path fill="#FFFFFF" d="M250,970.4h-54c-0.1,0-0.1,0-0.2,0c-3.3,0-6,2.8-5.9,6.1c0,3.3,2.8,6,6.1,5.9h48v48c0,0.1,0,0.1,0,0.2
		c0,3.3,2.8,6,6.1,5.9s6-2.8,5.9-6.1v-54c0-3.1-2.3-5.7-5.4-6C250.4,970.4,250.2,970.4,250,970.4z M49,1084.4c0,51.3,41.7,93,93,93
		c23.5,0,45-8.7,61.4-23.2l18.7,18.7l-6.3,6.2c0,0,0,0,0,0c-2.3,2.4-2.3,6.2,0,8.5l45,45c2.3,2.3,6.1,2.3,8.4,0l21-21c0,0,0,0,0,0
		c2.3-2.4,2.3-6.2,0-8.5l-45-45c-1-0.9-2.2-1.5-3.6-1.7c-1.8-0.2-3.6,0.4-4.9,1.7l-6.3,6.3l-18.7-18.7
		c14.4-16.4,23.2-37.8,23.2-61.3c0-51.3-41.7-93-93-93S49,1033.1,49,1084.4z M223,1084.4c0,44.8-36.2,81-81,81s-81-36.2-81-81
		c0-44.8,36.2-81,81-81S223,1039.6,223,1084.4z M33.9,1132.2c-3.3,0.1-5.9,2.8-5.9,6.1v54c0,3.3,2.7,6,6,6h54c0.1,0,0.1,0,0.2,0
		c3.3,0,6-2.8,5.9-6.1c0-3.3-2.8-6-6.1-5.9H40v-48c0.1-3.1-2.3-5.8-5.3-6.1C34.4,1132.2,34.1,1132.2,33.9,1132.2z M277.6,1207.4
		l-12.6,12.5l-36.6-36.5l12.6-12.6L277.6,1207.4z"/>
</g>
</svg>
