<?xml version="1.0" encoding="utf-8"?>
<!-- Generator: Adobe Illustrator 18.0.0, SVG Export Plug-In . SVG Version: 6.00 Build 0)  -->
<!DOCTYPE svg PUBLIC "-//W3C//DTD SVG 1.1//EN" "http://www.w3.org/Graphics/SVG/1.1/DTD/svg11.dtd">
<svg version="1.1" id="Layer_1" xmlns="http://www.w3.org/2000/svg" xmlns:xlink="http://www.w3.org/1999/xlink" x="0px" y="0px"
	 viewBox="0 0 320 300" enable-background="new 0 0 320 300" xml:space="preserve">
<g id="XMLID_44_">
	<path id="XMLID_45_" fill="#F6AD1B" d="M239.9,146.6c0,0,27.1,10.2,23.5-1.3c-2.7-10.2-12.9-20.9-24.4-30.6V93.7h-19.5v6.2
		c-10.7-7.5-19.5-14.2-20.9-15.1c0.4,0,12.9,7.5,17.3,0.9c7.1-12.4-36-46.6-55.9-51.9c-20,4.9-66.1,39.5-59,51.9
		c4.4,6.7,18.2,0.4,18.6,0.4C116,88,61,119.5,53.9,144.8c-3.1,11.5,24.9,1.3,24.9,1.3S27.7,187,29.9,212.7
		c1.3,13.8,21.8,6.7,41.7,2.2v14.2H69v27.1h180.2v-27.1h-2.7v-14.2c20.4,4,39.5,11.1,43.1-2.2C296.3,188.3,239.9,146.6,239.9,146.6z
		 M156.9,212.3v4h-22.2v-4v-21.3h22.2V212.3z M156.9,184.7h-22.2v-25.3h22.2V184.7z M185.3,212.3v4h-22.2v-4v-21.3h22.2V212.3z
		 M185.3,184.7h-22.2v-25.3h22.2V184.7z"/>
</g>
</svg>
