<?xml version="1.0" encoding="utf-8"?>
<!-- Generator: Adobe Illustrator 17.0.0, SVG Export Plug-In . SVG Version: 6.00 Build 0)  -->
<!DOCTYPE svg PUBLIC "-//W3C//DTD SVG 1.1//EN" "http://www.w3.org/Graphics/SVG/1.1/DTD/svg11.dtd">
<svg version="1.1"
	 id="Layer_1" xmlns:svg="http://www.w3.org/2000/svg" xmlns:cc="http://creativecommons.org/ns#" xmlns:dc="http://purl.org/dc/elements/1.1/" xmlns:inkscape="http://www.inkscape.org/namespaces/inkscape" xmlns:rdf="http://www.w3.org/1999/02/22-rdf-syntax-ns#" xmlns:sodipodi="http://sodipodi.sourceforge.net/DTD/sodipodi-0.dtd"
	 xmlns="http://www.w3.org/2000/svg" xmlns:xlink="http://www.w3.org/1999/xlink" x="0px" y="0px" width="841.89px"
	 height="595.28px" viewBox="0 0 841.89 595.28" enable-background="new 0 0 841.89 595.28" xml:space="preserve">
<g transform="translate(0,-952.36218)">
	<path d="M599.529,988.154h-107.15c-0.198,0-0.198,0-0.397,0c-6.548,0-11.906,5.556-11.707,12.104
		c0,6.548,5.556,11.906,12.104,11.707h95.245v95.245c0,0.198,0,0.198,0,0.397c0,6.548,5.556,11.906,12.104,11.707
		c6.548-0.198,11.906-5.556,11.707-12.104v-107.15c0-6.151-4.564-11.31-10.715-11.906
		C600.323,988.154,599.926,988.154,599.529,988.154z M200.691,1214.36c0,101.793,82.744,184.537,184.537,184.537
		c46.63,0,89.292-17.263,121.834-46.035l37.106,37.106l-12.501,12.302l0,0c-4.564,4.762-4.564,12.302,0,16.866l89.292,89.292
		c4.564,4.564,12.104,4.564,16.668,0l41.67-41.67l0,0c4.564-4.762,4.564-12.302,0-16.866l-89.292-89.292
		c-1.984-1.786-4.365-2.976-7.143-3.373c-3.572-0.397-7.143,0.794-9.723,3.373l-12.501,12.501l-37.106-37.106
		c28.573-32.542,46.035-75.005,46.035-121.636c0-101.793-82.744-184.537-184.537-184.537S200.691,1112.568,200.691,1214.36z
		 M545.954,1214.36c0,88.895-71.83,160.726-160.726,160.726s-160.726-71.83-160.726-160.726s71.83-160.726,160.726-160.726
		S545.954,1125.465,545.954,1214.36z M170.729,1309.208c-6.548,0.198-11.707,5.556-11.707,12.104v107.15
		c0,6.548,5.358,11.906,11.906,11.906h107.15c0.198,0,0.198,0,0.397,0c6.548,0,11.906-5.556,11.707-12.104
		c0-6.548-5.556-11.906-12.104-11.707h-95.245v-95.245c0.198-6.151-4.564-11.509-10.517-12.104
		C171.721,1309.208,171.126,1309.208,170.729,1309.208z M654.295,1458.425l-25.002,24.803l-72.624-72.426l25.002-25.002
		L654.295,1458.425z"/>
</g>
</svg>
