<svg width="105" height="69" viewBox="0 0 105 69" fill="none" xmlns="http://www.w3.org/2000/svg">
<path d="M95.7097 0H8.90323C3.98611 0 0 3.98611 0 8.90323V60.0968C0 65.0139 3.98611 69 8.90323 69H95.7097C100.627 69 104.613 65.0139 104.613 60.0968V8.90323C104.613 3.98611 100.627 0 95.7097 0Z" fill="#FDB821"/>
<path d="M81.8028 26.1294C80.7889 23.7912 78.0716 22.7193 75.7372 23.7331L73.1429 24.7977L63.8838 28.8824L38.6544 17.195C38.1563 16.8739 37.5647 16.6935 36.9296 16.6935C35.1578 16.6935 33.7253 18.126 33.7253 19.8978C33.7253 20.6697 33.9995 21.3806 34.4543 21.9326L48.0288 35.8899L39.3471 39.7256L27.2953 33.2307C26.8261 32.9886 26.2885 32.8516 25.722 32.8516C23.8095 32.8516 22.2581 34.4031 22.2581 36.3156C22.2581 36.9578 22.4383 37.5571 22.7414 38.0729L34.9232 51.8388L79.0966 32.3391L79.407 32.195C81.7451 31.1811 82.813 28.4638 81.8028 26.1294ZM53.5695 39.9025C52.5967 39.9025 51.808 39.1138 51.808 38.1409C51.808 37.1681 52.5967 36.3794 53.5695 36.3794C54.5424 36.3794 55.3311 37.1681 55.3311 38.1409C55.3311 39.1138 54.5424 39.9025 53.5695 39.9025ZM59.0615 37.5192C58.0886 37.5192 57.2999 36.7305 57.2999 35.7577C57.2999 34.7848 58.0886 33.9961 59.0615 33.9961C60.0343 33.9961 60.823 34.7848 60.823 35.7577C60.823 36.7305 60.0343 37.5192 59.0615 37.5192ZM64.657 35.0323C63.6842 35.0323 62.8955 34.2436 62.8955 33.2707C62.8955 32.2979 63.6842 31.5092 64.657 31.5092C65.6299 31.5092 66.4186 32.2979 66.4186 33.2707C66.4186 34.2436 65.6299 35.0323 64.657 35.0323Z" fill="white"/>
</svg>
